<?xml version="1.0" encoding="UTF-8" standalone="no"?>
<!DOCTYPE svg PUBLIC "-//W3C//DTD SVG 1.1//EN"
 "http://www.w3.org/Graphics/SVG/1.1/DTD/svg11.dtd">
<!-- Generated by graphviz version 2.47.0 (20210316.0004)
 -->
<!-- Title: dependencies Pages: 1 -->
<svg width="898pt" height="211pt"
 viewBox="0.00 0.00 898.00 211.00" xmlns="http://www.w3.org/2000/svg" xmlns:xlink="http://www.w3.org/1999/xlink">
<g id="graph0" class="graph" transform="scale(1 1) rotate(0) translate(4 207)">
<title>dependencies</title>
<polygon fill="white" stroke="transparent" points="-4,4 -4,-207 894,-207 894,4 -4,4"/>
<text text-anchor="start" x="424.01" y="-42.4" font-family="Times-12" font-weight="bold" font-size="14.00">Legend</text>
<polygon fill="#ffffb3" stroke="transparent" points="211,-10 211,-30 231,-30 231,-10 211,-10"/>
<text text-anchor="start" x="234.63" y="-15.4" font-family="Times-12" font-size="14.00"> &#160;Declarations</text>
<polygon fill="#8dd3c7" stroke="transparent" points="324,-10 324,-30 344,-30 344,-10 324,-10"/>
<text text-anchor="start" x="347.73" y="-15.4" font-family="Times-12" font-size="14.00"> &#160;Module</text>
<polygon fill="#80b1d3" stroke="transparent" points="410,-10 410,-30 430,-30 430,-10 410,-10"/>
<text text-anchor="start" x="433.78" y="-15.4" font-family="Times-12" font-size="14.00"> &#160;Bootstrap</text>
<polygon fill="#fdb462" stroke="transparent" points="507,-10 507,-30 527,-30 527,-10 507,-10"/>
<text text-anchor="start" x="530.67" y="-15.4" font-family="Times-12" font-size="14.00"> &#160;Providers</text>
<polygon fill="#fb8072" stroke="transparent" points="603,-10 603,-30 623,-30 623,-10 603,-10"/>
<text text-anchor="start" x="626.73" y="-15.4" font-family="Times-12" font-size="14.00"> &#160;Exports</text>
<g id="clust1" class="cluster">
<title>cluster_AppModule</title>
<polygon fill="none" stroke="black" stroke-dasharray="1,5" points="8,-70 8,-195 882,-195 882,-70 8,-70"/>
</g>
<g id="clust3" class="cluster">
<title>cluster_AppModule_imports</title>
<polygon fill="none" stroke="black" points="16,-78 16,-130 874,-130 874,-78 16,-78"/>
</g>
<!-- CommentModule -->
<g id="node1" class="node">
<title>CommentModule</title>
<polygon fill="#8dd3c7" stroke="black" points="866.27,-122 863.27,-126 842.27,-126 839.27,-122 751.73,-122 751.73,-86 866.27,-86 866.27,-122"/>
<text text-anchor="middle" x="809" y="-99.8" font-family="Times,serif" font-size="14.00">CommentModule</text>
</g>
<!-- AppModule -->
<g id="node8" class="node">
<title>AppModule</title>
<polygon fill="#8dd3c7" stroke="black" points="460.66,-187 457.66,-191 436.66,-191 433.66,-187 377.34,-187 377.34,-151 460.66,-151 460.66,-187"/>
<text text-anchor="middle" x="419" y="-164.8" font-family="Times,serif" font-size="14.00">AppModule</text>
</g>
<!-- CommentModule&#45;&gt;AppModule -->
<g id="edge1" class="edge">
<title>CommentModule&#45;&gt;AppModule</title>
<path fill="none" stroke="black" d="M809,-122.29C809,-144.21 809,-178 809,-178 809,-178 470.74,-178 470.74,-178"/>
<polygon fill="black" stroke="black" points="470.74,-174.5 460.74,-178 470.74,-181.5 470.74,-174.5"/>
</g>
<!-- ComposerModule -->
<g id="node2" class="node">
<title>ComposerModule</title>
<polygon fill="#8dd3c7" stroke="black" points="733.6,-122 730.6,-126 709.6,-126 706.6,-122 616.4,-122 616.4,-86 733.6,-86 733.6,-122"/>
<text text-anchor="middle" x="675" y="-99.8" font-family="Times,serif" font-size="14.00">ComposerModule</text>
</g>
<!-- ComposerModule&#45;&gt;AppModule -->
<g id="edge2" class="edge">
<title>ComposerModule&#45;&gt;AppModule</title>
<path fill="none" stroke="black" d="M675,-122.11C675,-141.34 675,-169 675,-169 675,-169 470.7,-169 470.7,-169"/>
<polygon fill="black" stroke="black" points="470.7,-165.5 460.7,-169 470.7,-172.5 470.7,-165.5"/>
</g>
<!-- CountriesModule -->
<g id="node3" class="node">
<title>CountriesModule</title>
<polygon fill="#8dd3c7" stroke="black" points="597.99,-122 594.99,-126 573.99,-126 570.99,-122 484.01,-122 484.01,-86 597.99,-86 597.99,-122"/>
<text text-anchor="middle" x="541" y="-99.8" font-family="Times,serif" font-size="14.00">CountriesModule</text>
</g>
<!-- CountriesModule&#45;&gt;AppModule -->
<g id="edge3" class="edge">
<title>CountriesModule&#45;&gt;AppModule</title>
<path fill="none" stroke="black" d="M541,-122.03C541,-138.4 541,-160 541,-160 541,-160 470.99,-160 470.99,-160"/>
<polygon fill="black" stroke="black" points="470.99,-156.5 460.99,-160 470.99,-163.5 470.99,-156.5"/>
</g>
<!-- GenreModule -->
<g id="node4" class="node">
<title>GenreModule</title>
<polygon fill="#8dd3c7" stroke="black" points="465.75,-122 462.75,-126 441.75,-126 438.75,-122 372.25,-122 372.25,-86 465.75,-86 465.75,-122"/>
<text text-anchor="middle" x="419" y="-99.8" font-family="Times,serif" font-size="14.00">GenreModule</text>
</g>
<!-- GenreModule&#45;&gt;AppModule -->
<g id="edge4" class="edge">
<title>GenreModule&#45;&gt;AppModule</title>
<path fill="none" stroke="black" d="M419,-122.11C419,-122.11 419,-140.99 419,-140.99"/>
<polygon fill="black" stroke="black" points="415.5,-140.99 419,-150.99 422.5,-140.99 415.5,-140.99"/>
</g>
<!-- LanguagesModule -->
<g id="node5" class="node">
<title>LanguagesModule</title>
<polygon fill="#8dd3c7" stroke="black" points="354.19,-122 351.19,-126 330.19,-126 327.19,-122 233.81,-122 233.81,-86 354.19,-86 354.19,-122"/>
<text text-anchor="middle" x="294" y="-99.8" font-family="Times,serif" font-size="14.00">LanguagesModule</text>
</g>
<!-- LanguagesModule&#45;&gt;AppModule -->
<g id="edge5" class="edge">
<title>LanguagesModule&#45;&gt;AppModule</title>
<path fill="none" stroke="black" d="M294,-122.03C294,-138.4 294,-160 294,-160 294,-160 367.03,-160 367.03,-160"/>
<polygon fill="black" stroke="black" points="367.03,-163.5 377.03,-160 367.03,-156.5 367.03,-163.5"/>
</g>
<!-- SongModule -->
<g id="node6" class="node">
<title>SongModule</title>
<polygon fill="#8dd3c7" stroke="black" points="216.33,-122 213.33,-126 192.33,-126 189.33,-122 127.67,-122 127.67,-86 216.33,-86 216.33,-122"/>
<text text-anchor="middle" x="172" y="-99.8" font-family="Times,serif" font-size="14.00">SongModule</text>
</g>
<!-- SongModule&#45;&gt;AppModule -->
<g id="edge6" class="edge">
<title>SongModule&#45;&gt;AppModule</title>
<path fill="none" stroke="black" d="M172,-122.11C172,-141.34 172,-169 172,-169 172,-169 367.1,-169 367.1,-169"/>
<polygon fill="black" stroke="black" points="367.1,-172.5 377.1,-169 367.1,-165.5 367.1,-172.5"/>
</g>
<!-- UserModule -->
<g id="node7" class="node">
<title>UserModule</title>
<polygon fill="#8dd3c7" stroke="black" points="109.98,-122 106.98,-126 85.98,-126 82.98,-122 24.02,-122 24.02,-86 109.98,-86 109.98,-122"/>
<text text-anchor="middle" x="67" y="-99.8" font-family="Times,serif" font-size="14.00">UserModule</text>
</g>
<!-- UserModule&#45;&gt;AppModule -->
<g id="edge7" class="edge">
<title>UserModule&#45;&gt;AppModule</title>
<path fill="none" stroke="black" d="M67,-122.29C67,-144.21 67,-178 67,-178 67,-178 367.24,-178 367.24,-178"/>
<polygon fill="black" stroke="black" points="367.24,-181.5 377.24,-178 367.24,-174.5 367.24,-181.5"/>
</g>
</g>
</svg>
